<svg width="229" height="65" viewBox="0 0 229 65" fill="none" xmlns="http://www.w3.org/2000/svg">
<path d="M32.2969 15.8438L32.8786 31.7152L48.75 32.2969L32.8786 32.8786L32.2969 48.75L31.7152 32.8786L15.8438 32.2969L31.7152 31.7152L32.2969 15.8438Z" fill="white"/>
<path d="M39.8125 57.4843C39.8125 61.635 36.4476 64.9999 32.2969 64.9999C28.1461 64.9999 24.7812 61.635 24.7812 57.4843C24.7812 53.3335 28.3492 46.1499 32.5 46.1499C36.6508 46.1499 39.8125 53.3335 39.8125 57.4843Z" fill="#EE334E"/>
<circle cx="11.1719" cy="53.4219" r="3.04688" fill="#EE334E"/>
<circle cx="53.0156" cy="11.1719" r="3.04688" fill="#FCB131"/>
<circle cx="53.4219" cy="53.4219" r="3.04688" fill="#0081C8"/>
<circle cx="11.5781" cy="11.5781" r="3.04688" fill="#00A651"/>
<path d="M65 32.7031C65 36.8539 61.6351 40.2188 57.4844 40.2188C53.3336 40.2188 45.5 36.6508 45.5 32.5C45.5 28.3492 53.3336 25.1875 57.4844 25.1875C61.6351 25.1875 65 28.5524 65 32.7031Z" fill="#0081C8"/>
<path d="M39.8125 7.51563C39.8125 11.6664 36.6508 18.2 32.5 18.2C28.3492 18.2 24.7812 11.6664 24.7812 7.51563C24.7812 3.36486 28.1461 0 32.2969 0C36.4476 0 39.8125 3.36486 39.8125 7.51563Z" fill="#FCB131"/>
<path d="M18.2 32.5C18.2 36.6508 11.6664 40.2188 7.51563 40.2188C3.36486 40.2188 0 36.8539 0 32.7031C0 28.5524 3.36486 25.1875 7.51563 25.1875C11.6664 25.1875 18.2 28.3492 18.2 32.5Z" fill="#00A651"/>
<path d="M95.1787 29.298C95.1787 22.382 89.4027 20.14 85.4127 20.14C79.9027 20.14 75.4567 23.864 75.4567 29.336C75.4567 35.036 80.0167 38.342 85.3747 38.342C89.4027 38.342 95.1787 36.138 95.1787 29.298ZM89.2887 28.956C89.2887 30.362 89.2887 34.922 85.3747 34.922C81.3847 34.922 81.3847 30.514 81.3847 29.45C81.3847 27.854 81.3847 23.522 85.2227 23.522C89.2887 23.522 89.2887 27.74 89.2887 28.956ZM119.11 20.482H116.412C116.488 18.088 116.83 16.264 119.642 16.264C119.642 16.264 120.896 16.302 122.188 16.53V12.084C121.01 11.894 119.414 11.742 118.426 11.742C117.704 11.742 113.752 11.856 112.042 15.048C111.32 16.416 110.978 18.05 110.978 20.482H104.822C104.822 18.43 104.822 16.302 107.862 16.302C108.85 16.302 109.952 16.492 110.408 16.53V12.084L110.142 12.046C108.28 11.78 107.9 11.742 106.988 11.742C105.164 11.742 102.998 12.16 101.326 13.87C99.578 15.694 99.426 17.822 99.312 20.482H96.804V24.168H99.312V38H104.822V24.168H110.978V38H116.412V24.168H119.11V20.482Z" fill="#00A651"/>
<path d="M131.413 22.002C130.615 21.584 128.791 20.596 126.245 20.596C122.977 20.596 120.811 22.534 120.811 25.042C120.811 27.892 123.281 29.412 126.093 30.97C127.689 31.844 128.715 32.414 128.715 33.63C128.715 34.77 127.195 35.378 126.131 35.378C125.219 35.378 123.129 34.808 120.697 33.136V36.784C122.407 37.62 124.003 38.342 126.397 38.342C131.033 38.342 132.249 35.112 132.249 33.516C132.249 31.236 130.425 29.488 127.993 28.158C125.485 26.752 124.307 26.144 124.307 25.042C124.307 24.396 124.877 23.522 126.473 23.522C128.069 23.522 129.513 24.168 131.413 25.346V22.002ZM139.46 12.084H136.078V38H139.46V25.764C140.942 24.092 142.12 23.256 143.754 23.256C144.78 23.256 145.844 23.826 146.452 24.814C146.718 25.27 147.06 26.068 147.06 27.436V38H150.442V28.272C150.442 26.6 150.252 24.966 149.796 23.826C149.074 22.116 147.25 20.596 144.704 20.596C142.69 20.596 140.79 21.584 139.46 23.18V12.084ZM163.324 20.596C157.624 20.596 154.128 24.662 154.128 29.45C154.128 34.314 157.738 38.342 163.21 38.342C167.428 38.342 172.368 35.606 172.368 29.526C172.368 24.13 168.416 20.596 163.324 20.596ZM163.134 23.636C165.566 23.636 168.91 25.156 168.91 29.45C168.91 32.908 166.63 35.302 163.286 35.302C160.778 35.302 157.586 33.782 157.586 29.488C157.586 25.726 160.094 23.636 163.134 23.636ZM175.968 20.938V38H179.35V29.07C179.35 25.194 182.124 23.826 183.378 23.826C184.708 23.826 186.228 25.08 186.646 25.498L188.432 22.534C186.456 20.634 184.936 20.596 184.442 20.596C182.048 20.596 180.452 23.142 179.35 24.852V20.938H175.968ZM204.064 33.022C202.24 34.352 200.074 35.112 197.87 35.112C194.146 35.112 192.474 32.3 192.36 29.754H204.368C204.368 29.108 204.368 28.348 204.178 27.208C203.608 23.446 200.91 20.596 196.92 20.596C192.284 20.596 188.94 24.054 188.94 29.374C188.94 31.008 189.244 33.63 191.486 35.948C193.538 38.076 195.59 38.342 197.376 38.342C200.948 38.342 202.886 37.088 204.064 36.328V33.022ZM192.436 27.74C192.55 26.98 192.702 25.954 193.614 24.966C194.526 23.94 195.818 23.522 196.882 23.522C200.72 23.522 200.986 27.056 201.024 27.74H192.436Z" fill="#EE334E"/>
<path d="M78.436 44.452H77.064V54H78.436V44.452ZM91.078 44.452H83.098V45.656H86.374V54H87.746V45.656H91.078V44.452ZM107.512 44.998C106.854 44.564 106.098 44.326 105.314 44.326C103.592 44.326 102.5 45.418 102.5 46.86C102.5 47.462 102.682 47.91 102.976 48.288C103.396 48.82 103.83 49.086 105.342 49.996C105.79 50.262 106.602 50.85 106.602 51.648C106.602 52.46 105.832 52.908 105.118 52.908C103.676 52.908 102.822 51.858 102.542 51.508V53.244C103.284 53.804 104.18 54.126 105.118 54.126C106.812 54.126 107.89 53.02 107.89 51.522C107.89 50.836 107.666 50.318 107.372 49.94C107.008 49.45 106.546 49.114 106.14 48.876C104.32 47.812 103.76 47.476 103.76 46.664C103.76 46.062 104.334 45.558 105.272 45.558C105.916 45.558 106.7 45.768 107.512 46.552V44.998ZM117.438 44.326C114.176 44.326 112.328 46.72 112.328 49.254C112.328 51.914 114.372 54.126 117.368 54.126C120.49 54.126 122.59 51.956 122.59 49.212C122.59 46.65 120.616 44.326 117.438 44.326ZM117.494 45.614C119.986 45.614 121.19 47.616 121.19 49.198C121.19 50.024 120.84 51.06 120.238 51.718C119.58 52.432 118.474 52.852 117.452 52.852C115.45 52.852 113.742 51.424 113.742 49.254C113.742 47.658 114.82 45.614 117.494 45.614ZM129.005 44.452H127.619V54H133.303V52.754H129.005V44.452ZM145.864 44.452H144.506V49.87C144.506 50.808 144.422 51.312 144.24 51.648C143.988 52.11 143.316 52.908 141.776 52.908C140.67 52.908 140.04 52.53 139.634 52.11C139.144 51.62 139.032 51.13 139.032 49.87V44.452H137.66V49.87C137.66 50.514 137.66 51.62 138.192 52.46C138.948 53.664 140.432 54.126 141.776 54.126C142.868 54.126 143.932 53.846 144.786 53.09C145.864 52.124 145.864 50.794 145.864 49.87V44.452ZM158.297 44.452H150.317V45.656H153.593V54H154.965V45.656H158.297V44.452ZM164.324 44.452H162.952V54H164.324V44.452ZM174.488 44.326C171.226 44.326 169.378 46.72 169.378 49.254C169.378 51.914 171.422 54.126 174.418 54.126C177.54 54.126 179.64 51.956 179.64 49.212C179.64 46.65 177.666 44.326 174.488 44.326ZM174.544 45.614C177.036 45.614 178.24 47.616 178.24 49.198C178.24 50.024 177.89 51.06 177.288 51.718C176.63 52.432 175.524 52.852 174.502 52.852C172.5 52.852 170.792 51.424 170.792 49.254C170.792 47.658 171.87 45.614 174.544 45.614ZM193.573 44.452H192.271V51.858L185.831 44.452H184.725V54H186.013V46.65L192.397 54H193.573V44.452ZM203.517 44.998C202.859 44.564 202.103 44.326 201.319 44.326C199.597 44.326 198.505 45.418 198.505 46.86C198.505 47.462 198.687 47.91 198.981 48.288C199.401 48.82 199.835 49.086 201.347 49.996C201.795 50.262 202.607 50.85 202.607 51.648C202.607 52.46 201.837 52.908 201.123 52.908C199.681 52.908 198.827 51.858 198.547 51.508V53.244C199.289 53.804 200.185 54.126 201.123 54.126C202.817 54.126 203.895 53.02 203.895 51.522C203.895 50.836 203.671 50.318 203.377 49.94C203.013 49.45 202.551 49.114 202.145 48.876C200.325 47.812 199.765 47.476 199.765 46.664C199.765 46.062 200.339 45.558 201.277 45.558C201.921 45.558 202.705 45.768 203.517 46.552V44.998Z" fill="white"/>
</svg>
