<svg width="233" height="73" viewBox="0 0 233 73" fill="none" xmlns="http://www.w3.org/2000/svg">
<g filter="url(#filter0_d_0_168)">
<path d="M43.8125 57.4843C43.8125 61.635 40.4476 64.9999 36.2969 64.9999C32.1461 64.9999 28.7812 61.635 28.7812 57.4843C28.7812 53.3335 32.3492 46.1499 36.5 46.1499C40.6508 46.1499 43.8125 53.3335 43.8125 57.4843Z" fill="#EE334E"/>
<circle cx="15.1719" cy="53.4219" r="3.04688" fill="#EE334E"/>
<circle cx="57.0156" cy="11.1719" r="3.04688" fill="#FCB131"/>
<circle cx="57.4219" cy="53.4219" r="3.04688" fill="#0081C8"/>
<circle cx="15.5781" cy="11.5781" r="3.04688" fill="#00A651"/>
<path d="M69 32.7031C69 36.8539 65.6351 40.2188 61.4844 40.2188C57.3336 40.2188 49.5 36.6508 49.5 32.5C49.5 28.3492 57.3336 25.1875 61.4844 25.1875C65.6351 25.1875 69 28.5524 69 32.7031Z" fill="#0081C8"/>
<path d="M43.8125 7.51563C43.8125 11.6664 40.6508 18.2 36.5 18.2C32.3492 18.2 28.7812 11.6664 28.7812 7.51563C28.7812 3.36486 32.1461 0 36.2969 0C40.4476 0 43.8125 3.36486 43.8125 7.51563Z" fill="#FCB131"/>
<path d="M22.2 32.5C22.2 36.6508 15.6664 40.2188 11.5156 40.2188C7.36486 40.2188 4 36.8539 4 32.7031C4 28.5524 7.36486 25.1875 11.5156 25.1875C15.6664 25.1875 22.2 28.3492 22.2 32.5Z" fill="#00A651"/>
<path d="M36.2969 15.8438L36.8786 31.7152L52.75 32.2969L36.8786 32.8786L36.2969 48.75L35.7152 32.8786L19.8438 32.2969L35.7152 31.7152L36.2969 15.8438Z" fill="#251A1A"/>
<path d="M99.1787 31.298C99.1787 24.382 93.4027 22.14 89.4127 22.14C83.9027 22.14 79.4567 25.864 79.4567 31.336C79.4567 37.036 84.0167 40.342 89.3747 40.342C93.4027 40.342 99.1787 38.138 99.1787 31.298ZM93.2887 30.956C93.2887 32.362 93.2887 36.922 89.3747 36.922C85.3847 36.922 85.3847 32.514 85.3847 31.45C85.3847 29.854 85.3847 25.522 89.2227 25.522C93.2887 25.522 93.2887 29.74 93.2887 30.956ZM123.11 22.482H120.412C120.488 20.088 120.83 18.264 123.642 18.264C123.642 18.264 124.896 18.302 126.188 18.53V14.084C125.01 13.894 123.414 13.742 122.426 13.742C121.704 13.742 117.752 13.856 116.042 17.048C115.32 18.416 114.978 20.05 114.978 22.482H108.822C108.822 20.43 108.822 18.302 111.862 18.302C112.85 18.302 113.952 18.492 114.408 18.53V14.084L114.142 14.046C112.28 13.78 111.9 13.742 110.988 13.742C109.164 13.742 106.998 14.16 105.326 15.87C103.578 17.694 103.426 19.822 103.312 22.482H100.804V26.168H103.312V40H108.822V26.168H114.978V40H120.412V26.168H123.11V22.482Z" fill="#00A651"/>
<path d="M135.413 24.002C134.615 23.584 132.791 22.596 130.245 22.596C126.977 22.596 124.811 24.534 124.811 27.042C124.811 29.892 127.281 31.412 130.093 32.97C131.689 33.844 132.715 34.414 132.715 35.63C132.715 36.77 131.195 37.378 130.131 37.378C129.219 37.378 127.129 36.808 124.697 35.136V38.784C126.407 39.62 128.003 40.342 130.397 40.342C135.033 40.342 136.249 37.112 136.249 35.516C136.249 33.236 134.425 31.488 131.993 30.158C129.485 28.752 128.307 28.144 128.307 27.042C128.307 26.396 128.877 25.522 130.473 25.522C132.069 25.522 133.513 26.168 135.413 27.346V24.002ZM143.46 14.084H140.078V40H143.46V27.764C144.942 26.092 146.12 25.256 147.754 25.256C148.78 25.256 149.844 25.826 150.452 26.814C150.718 27.27 151.06 28.068 151.06 29.436V40H154.442V30.272C154.442 28.6 154.252 26.966 153.796 25.826C153.074 24.116 151.25 22.596 148.704 22.596C146.69 22.596 144.79 23.584 143.46 25.18V14.084ZM167.324 22.596C161.624 22.596 158.128 26.662 158.128 31.45C158.128 36.314 161.738 40.342 167.21 40.342C171.428 40.342 176.368 37.606 176.368 31.526C176.368 26.13 172.416 22.596 167.324 22.596ZM167.134 25.636C169.566 25.636 172.91 27.156 172.91 31.45C172.91 34.908 170.63 37.302 167.286 37.302C164.778 37.302 161.586 35.782 161.586 31.488C161.586 27.726 164.094 25.636 167.134 25.636ZM179.968 22.938V40H183.35V31.07C183.35 27.194 186.124 25.826 187.378 25.826C188.708 25.826 190.228 27.08 190.646 27.498L192.432 24.534C190.456 22.634 188.936 22.596 188.442 22.596C186.048 22.596 184.452 25.142 183.35 26.852V22.938H179.968ZM208.064 35.022C206.24 36.352 204.074 37.112 201.87 37.112C198.146 37.112 196.474 34.3 196.36 31.754H208.368C208.368 31.108 208.368 30.348 208.178 29.208C207.608 25.446 204.91 22.596 200.92 22.596C196.284 22.596 192.94 26.054 192.94 31.374C192.94 33.008 193.244 35.63 195.486 37.948C197.538 40.076 199.59 40.342 201.376 40.342C204.948 40.342 206.886 39.088 208.064 38.328V35.022ZM196.436 29.74C196.55 28.98 196.702 27.954 197.614 26.966C198.526 25.94 199.818 25.522 200.882 25.522C204.72 25.522 204.986 29.056 205.024 29.74H196.436Z" fill="#EE334E"/>
<path d="M81.566 46.1657H80.684V52.3037H81.566V46.1657ZM90.683 46.1657H85.553V46.9397H87.659V52.3037H88.541V46.9397H90.683V46.1657ZM104.92 46.1657H99.7895V46.9397H101.896V52.3037H102.778V46.9397H104.92V46.1657ZM112.376 46.1657H108.893V52.3037H112.457V51.5117H109.775V49.6037H112.286V48.8207H109.775V46.9487H112.376V46.1657ZM119.32 46.1297H118.699L116.062 52.3037H116.962L117.736 50.4947H120.346L121.165 52.3037H122.065L119.32 46.1297ZM118.078 49.7027L118.996 47.4797L119.986 49.7027H118.078ZM131.595 46.1657H130.776L128.742 48.6857L126.699 46.1657H125.871V52.3037H126.753V47.5247L128.661 49.9007H128.823L130.713 47.5247V52.3037H131.595V46.1657ZM144.642 46.5167C144.219 46.2377 143.733 46.0847 143.229 46.0847C142.122 46.0847 141.42 46.7867 141.42 47.7137C141.42 48.1007 141.537 48.3887 141.726 48.6317C141.996 48.9737 142.275 49.1447 143.247 49.7297C143.535 49.9007 144.057 50.2787 144.057 50.7917C144.057 51.3137 143.562 51.6017 143.103 51.6017C142.176 51.6017 141.627 50.9267 141.447 50.7017V51.8177C141.924 52.1777 142.5 52.3847 143.103 52.3847C144.192 52.3847 144.885 51.6737 144.885 50.7107C144.885 50.2697 144.741 49.9367 144.552 49.6937C144.318 49.3787 144.021 49.1627 143.76 49.0097C142.59 48.3257 142.23 48.1097 142.23 47.5877C142.23 47.2007 142.599 46.8767 143.202 46.8767C143.616 46.8767 144.12 47.0117 144.642 47.5157V46.5167ZM152.013 46.0847C149.916 46.0847 148.728 47.6237 148.728 49.2527C148.728 50.9627 150.042 52.3847 151.968 52.3847C153.975 52.3847 155.325 50.9897 155.325 49.2257C155.325 47.5787 154.056 46.0847 152.013 46.0847ZM152.049 46.9127C153.651 46.9127 154.425 48.1997 154.425 49.2167C154.425 49.7477 154.2 50.4137 153.813 50.8367C153.39 51.2957 152.679 51.5657 152.022 51.5657C150.735 51.5657 149.637 50.6477 149.637 49.2527C149.637 48.2267 150.33 46.9127 152.049 46.9127ZM160.439 46.1657H159.548V52.3037H163.202V51.5027H160.439V46.1657ZM172.267 46.1657H171.394V49.6487C171.394 50.2517 171.34 50.5757 171.223 50.7917C171.061 51.0887 170.629 51.6017 169.639 51.6017C168.928 51.6017 168.523 51.3587 168.262 51.0887C167.947 50.7737 167.875 50.4587 167.875 49.6487V46.1657H166.993V49.6487C166.993 50.0627 166.993 50.7737 167.335 51.3137C167.821 52.0877 168.775 52.3847 169.639 52.3847C170.341 52.3847 171.025 52.2047 171.574 51.7187C172.267 51.0977 172.267 50.2427 172.267 49.6487V46.1657ZM181.249 46.1657H176.119V46.9397H178.225V52.3037H179.107V46.9397H181.249V46.1657ZM186.114 46.1657H185.232V52.3037H186.114V46.1657ZM193.638 46.0847C191.541 46.0847 190.353 47.6237 190.353 49.2527C190.353 50.9627 191.667 52.3847 193.593 52.3847C195.6 52.3847 196.95 50.9897 196.95 49.2257C196.95 47.5787 195.681 46.0847 193.638 46.0847ZM193.674 46.9127C195.276 46.9127 196.05 48.1997 196.05 49.2167C196.05 49.7477 195.825 50.4137 195.438 50.8367C195.015 51.2957 194.304 51.5657 193.647 51.5657C192.36 51.5657 191.262 50.6477 191.262 49.2527C191.262 48.2267 191.955 46.9127 193.674 46.9127ZM206.897 46.1657H206.06V50.9267L201.92 46.1657H201.209V52.3037H202.037V47.5787L206.141 52.3037H206.897V46.1657Z" fill="#0081C8"/>
</g>
<defs>
<filter id="filter0_d_0_168" x="0" y="0" width="212.368" height="73" filterUnits="userSpaceOnUse" color-interpolation-filters="sRGB">
<feFlood flood-opacity="0" result="BackgroundImageFix"/>
<feColorMatrix in="SourceAlpha" type="matrix" values="0 0 0 0 0 0 0 0 0 0 0 0 0 0 0 0 0 0 127 0" result="hardAlpha"/>
<feOffset dy="4"/>
<feGaussianBlur stdDeviation="2"/>
<feComposite in2="hardAlpha" operator="out"/>
<feColorMatrix type="matrix" values="0 0 0 0 0 0 0 0 0 0 0 0 0 0 0 0 0 0 0.25 0"/>
<feBlend mode="normal" in2="BackgroundImageFix" result="effect1_dropShadow_0_168"/>
<feBlend mode="normal" in="SourceGraphic" in2="effect1_dropShadow_0_168" result="shape"/>
</filter>
</defs>
</svg>
